<?xml version="1.0" encoding="utf-8"?>
<!-- Generator: Adobe Illustrator 25.4.1, SVG Export Plug-In . SVG Version: 6.00 Build 0)  -->
<svg version="1.1" id="Layer_1" xmlns="http://www.w3.org/2000/svg" xmlns:xlink="http://www.w3.org/1999/xlink" x="0px" y="0px"
	 viewBox="0 0 191.4 200" style="enable-background:new 0 0 191.4 200;" xml:space="preserve">
<style type="text/css">
	.st0{fill:#EB2329;}
	.st1{fill:#FFFFFF;}
</style>
<path class="st0" d="M185.3,116.9c-3.4,41-37.3,78.7-84.8,81.2c-48.5,2.5-87.6-32.6-93.8-76.5c-3.8-27,2.9-51.3,20.7-72.1
	c17.8-20.7,40.8-30.8,68.2-31.3c0-5.5,0-10.9,0-16.4c45.2-1.7,95.1,39.2,89.8,98.5c-0.6,0-1.2,0-1.8,0c-26.3,0-52.6,0-78.9,0
	c-4.1,0-7.4,2.5-8.3,6.2c-1.3,5.2,2.5,10.2,8,10.3c4.5,0.1,8.9,0,13.4,0c5,0,8.7,3.8,8.6,8.7c-0.1,1.9-0.6,3.5-1.8,5
	c-7.9,9.7-18.1,14.5-30.6,13.9c-17.4-0.7-32-14.4-33.9-31.7c-0.4-3.6-0.1-7.2-0.1-11c-0.3,0-0.8-0.1-1.2-0.1c-8.2,0-16.3,0-24.5,0
	c-1.3,0-1.6,0.4-1.7,1.6c-1.3,19.6,5,36.5,18.9,50.3c10.3,10.2,22.8,16.1,37.3,17.8c31.8,3.6,60.9-17,68.6-47.3
	c0.5-2,0.9-4.1,1.3-6.2c0.1-0.7,0.3-1,1.1-1c8.4,0,16.8,0,25.1,0C184.9,116.8,185,116.9,185.3,116.9z M134.7,64.5
	c0-6.8-5.4-12.2-12.2-12.2c-6.7,0-12.2,5.5-12.2,12.2c0,6.6,5.7,12.3,12.2,12.2C129.3,76.6,134.7,71.1,134.7,64.5z"/>
</svg>
